# xmcd
#
# Track frame offsets: 
#        150
#        18813
#        43323
#        59216
#        75911
#        101998
#        121019
#        143149
#        176968
#        214930
#        240612
#        252889
#        255128
#        271237
#        272379
#        297298
#        299157
#
# Disc length: 4320 seconds
#
# Revision: 0
# Processed by: cddbd v1.5.2PL0 Copyright (c) Steve Scherf et al.
# Submitted via: ExactAudioCopy v0.95b3
#
DISCID=0110de11
DTITLE=Jimi Hendrix  - Moonbeams and Fairytales - Disc 19
DYEAR=1900
DGENRE=
TTITLE0=Hey Joe
TTITLE1=Catfish Blues
TTITLE2=Fire
TTITLE3=Stone Free
TTITLE4=Foxy Lady
TTITLE5=The Wind Cries Mary
TTITLE6=Rock Me Baby
TTITLE7=Red House
TTITLE8=Purple Haze
TTITLE9=Wild Thing
TTITLE10=Angel
TTITLE11=Introduction (Alexis Korner)
TTITLE12=Can You Please Crawl Out Your Window
TTITLE13=Introduction (Alexis Korner)
TTITLE14=Hoochie Coochie Man
TTITLE15=Introduction (Alexis Korner)
TTITLE16=Driving South
EXTD=
EXTT0=
EXTT1=
EXTT2=
EXTT3=
EXTT4=
EXTT5=
EXTT6=
EXTT7=
EXTT8=
EXTT9=
EXTT10=
EXTT11=
EXTT12=
EXTT13=
EXTT14=
EXTT15=
EXTT16=
PLAYORDER=
